# xmcd
#
# Track frame offsets:
#	150
#	12928
#	25833
#	40698
#	52864
#	67123
#	80085
#	93256
#	104986
#	119199
#	132544
#	146837
#	161407
#	174873
#	187818
#	201579
#	214746
#	228298
#	241697
#	254860
#	267747
#	280245
#	293664
#	306794
#	320776
#	334738
#
# Disc length: 4660 seconds
#
# Revision: 1
# Processed by: cddbd v1.4PL0 Copyright (c) Steve Scherf et al.
# Submitted via: CDmax 2.0
#
DISCID=9312321a
DTITLE=The Carter Family - Volume 2, Disc 1, New York City, 1935
DYEAR=2003
DGENRE=Country
TTITLE0=Glory To The Lamb
TTITLE1=Behind Those Stone Walls
TTITLE2=Sinking In The Lonesome Sea
TTITLE3=He Took A White Rose From Her Hair
TTITLE4=Can The Circle Be Unbroken (Bye And Bye)
TTITLE5=Let's Be Lovers Again
TTITLE6=Your Mother Still Prays (For You Jack)
TTITLE7=Kissing Is A Crime
TTITLE8=Don't Forget Me Little Darling
TTITLE9=Sad And Lonesome Day
TTITLE10=By The Touch Of Her Hand
TTITLE11=East Virginia Blues No. 2
TTITLE12=My Old Virginia Home
TTITLE13=My Virginia Rose Is Blooming
TTITLE14=My Texas Girl
TTITLE15=No Other's Bride I'll Be
TTITLE16=Gathering Flowers From The Hillside
TTITLE17=Gospel Ship
TTITLE18=Little Black Train
TTITLE19=Keep On The Sunny Side
TTITLE20=River Of Jordan
TTITLE21=Lonesome Valley
TTITLE22=God Gave Noah The Rainbow Sign
TTITLE23=Single Girl, Married Girl
TTITLE24=Fate Of Dewey Lee, The
TTITLE25=Wildwood Flower
EXTD=
EXTT0=
EXTT1=
EXTT2=
EXTT3=
EXTT4=
EXTT5=
EXTT6=
EXTT7=
EXTT8=
EXTT9=
EXTT10=
EXTT11=
EXTT12=
EXTT13=
EXTT14=
EXTT15=
EXTT16=
EXTT17=
EXTT18=
EXTT19=
EXTT20=
EXTT21=
EXTT22=
EXTT23=
EXTT24=
EXTT25=
PLAYORDER=
